<svg xmlns="http://www.w3.org/2000/svg" width="32" height="32" viewBox="0 0 32 32"><circle cx="16" cy="16" r="16" fill="#FF0420"/><path d="M10.8 19.5c-1.6 0-2.8-.5-3.6-1.4-.8-.9-1.2-2.2-1.2-3.7 0-1.8.5-3.3 1.5-4.5s2.4-1.8 4.1-1.8c1.6 0 2.8.5 3.6 1.4.8.9 1.2 2.1 1.2 3.6 0 1.8-.5 3.3-1.5 4.5-1 1.3-2.4 1.9-4.1 1.9zm.3-2.3c.8 0 1.5-.4 2-1.1.5-.7.8-1.7.8-3 0-1-.2-1.7-.6-2.2-.4-.5-1-.8-1.7-.8-.8 0-1.5.4-2 1.1-.5.7-.8 1.7-.8 3 0 1 .2 1.7.6 2.2.4.5 1 .8 1.7.8zm9.4 2.3c-1 0-1.8-.3-2.4-.8-.6-.6-.9-1.3-.9-2.3 0-1.3.5-2.4 1.4-3.2.9-.8 2.1-1.2 3.6-1.2h2.1l.2-1c0-.6-.2-1-.5-1.3-.3-.3-.8-.5-1.5-.5-.5 0-1 .1-1.5.3-.5.2-.9.4-1.3.7l-1-2c.6-.4 1.2-.7 2-.9.7-.2 1.5-.3 2.2-.3 1.3 0 2.3.3 3 1 .7.6 1 1.5 1 2.7l-1 5.2c-.1.4-.1.8-.1 1.2v.9h-2.7l.1-1.2c-.8 1-1.8 1.5-3.1 1.5zm.8-2.2c.6 0 1.1-.2 1.6-.5.5-.4.8-.8.9-1.4l.1-.8h-1.6c-.7 0-1.3.2-1.7.5-.4.3-.6.8-.6 1.3 0 .3.1.5.3.7.3.1.6.2 1 .2z" fill="#fff"/></svg>