<svg xmlns="http://www.w3.org/2000/svg" width="32" height="32" viewBox="0 0 32 32"><circle cx="16" cy="16" r="16" fill="#000"/><defs><linearGradient id="a" x1="6" y1="24" x2="26" y2="8" gradientUnits="userSpaceOnUse"><stop stop-color="#9945FF"/><stop offset=".5" stop-color="#14F195"/><stop offset="1" stop-color="#00D1FF"/></linearGradient></defs><path d="M9.3 20.5c.1-.1.3-.2.5-.2h14.5c.3 0 .5.4.3.6l-2.5 2.5c-.1.1-.3.2-.5.2H7.1c-.3 0-.5-.4-.3-.6l2.5-2.5zm0-5.8c.1-.1.3-.2.5-.2h14.5c.3 0 .5.4.3.6l-2.5 2.5c-.1.1-.3.2-.5.2H7.1c-.3 0-.5-.4-.3-.6l2.5-2.5zm12.5-3.3c-.1-.1-.3-.2-.5-.2H6.8c-.3 0-.5.4-.3.6l2.5 2.5c.1.1.3.2.5.2h14.5c.3 0 .5-.4.3-.6l-2.5-2.5z" fill="url(#a)"/></svg>